<svg width="117" height="49" viewBox="0 0 117 49" fill="none" xmlns="http://www.w3.org/2000/svg">
<path d="M100.042 10.2084H83.7083V34.7084H110.25V16.3334" stroke="#EE5242" stroke-width="12.25"/>
<path d="M29.6654 25.1775C29.6654 27.3417 29.2979 29.3357 28.5629 31.1596C27.8415 32.9699 26.8139 34.5283 25.48 35.835C24.1597 37.1417 22.5672 38.1625 20.7025 38.8975C18.8378 39.6325 16.7689 40 14.4958 40H3.10333V10.3754H14.4958C16.7689 10.3754 18.8378 10.7429 20.7025 11.4779C22.5672 12.2129 24.1597 13.2406 25.48 14.5608C26.8139 15.8675 27.8415 17.426 28.5629 19.2362C29.2979 21.0465 29.6654 23.0269 29.6654 25.1775ZM23.3771 25.1775C23.3771 23.6258 23.1729 22.2307 22.7646 20.9921C22.3563 19.7535 21.771 18.7054 21.0088 17.8479C20.2465 16.9904 19.3142 16.3303 18.2117 15.8675C17.1228 15.4047 15.8842 15.1733 14.4958 15.1733H9.26917V35.2021H14.4958C15.8842 35.2021 17.1228 34.9775 18.2117 34.5283C19.3142 34.0656 20.2465 33.4054 21.0088 32.5479C21.771 31.6768 22.3563 30.6219 22.7646 29.3833C23.1729 28.1447 23.3771 26.7428 23.3771 25.1775ZM46.5044 26.9946C46.5044 26.4093 46.4227 25.8512 46.2594 25.3204C46.1097 24.7896 45.8647 24.32 45.5244 23.9117C45.1841 23.5033 44.7554 23.1835 44.2381 22.9521C43.7209 22.7071 43.1016 22.5846 42.3802 22.5846C41.0327 22.5846 39.9779 22.9657 39.2156 23.7279C38.4534 24.4901 37.9566 25.579 37.7252 26.9946H46.5044ZM37.6436 30.3429C37.8205 32.3165 38.3786 33.7593 39.3177 34.6712C40.2705 35.5832 41.5091 36.0392 43.0336 36.0392C43.8094 36.0392 44.4763 35.9507 45.0344 35.7737C45.6061 35.5832 46.1029 35.379 46.5248 35.1612C46.9604 34.9299 47.3483 34.7257 47.6886 34.5487C48.0424 34.3582 48.3895 34.2629 48.7298 34.2629C49.1654 34.2629 49.5056 34.4262 49.7506 34.7529L51.384 36.7946C50.7851 37.4887 50.1249 38.0672 49.4036 38.53C48.6822 38.9792 47.9336 39.3399 47.1577 39.6121C46.3819 39.8707 45.5992 40.0476 44.8098 40.1429C44.0204 40.2518 43.2581 40.3063 42.5231 40.3063C41.0531 40.3063 39.6784 40.0681 38.399 39.5917C37.1331 39.1017 36.0238 38.3871 35.071 37.4479C34.1319 36.4951 33.3901 35.3178 32.8456 33.9158C32.3012 32.5139 32.029 30.8874 32.029 29.0362C32.029 27.6071 32.2604 26.2596 32.7231 24.9937C33.1995 23.7279 33.8801 22.6254 34.7648 21.6862C35.6495 20.7471 36.7248 20.0053 37.9906 19.4608C39.2565 18.9028 40.6856 18.6237 42.2781 18.6237C43.6256 18.6237 44.8642 18.8415 45.994 19.2771C47.1373 19.699 48.1173 20.3183 48.934 21.135C49.7642 21.9517 50.404 22.9589 50.8531 24.1567C51.3159 25.3408 51.5473 26.6951 51.5473 28.2196C51.5473 28.6415 51.5269 28.9886 51.4861 29.2608C51.4452 29.5331 51.3772 29.7508 51.2819 29.9142C51.1866 30.0775 51.0573 30.1932 50.894 30.2612C50.7306 30.3157 50.5197 30.3429 50.2611 30.3429H37.6436ZM73.8611 18.9504L65.5924 40H60.4882L52.2195 18.9504H56.8949C57.3032 18.9504 57.6435 19.0457 57.9157 19.2362C58.1879 19.4268 58.3785 19.6718 58.4874 19.9712L62.0195 30.3837C62.2508 31.0915 62.455 31.7857 62.632 32.4662C62.8089 33.1332 62.9654 33.8069 63.1015 34.4875C63.2513 33.8069 63.4146 33.1332 63.5915 32.4662C63.7821 31.7857 63.9999 31.0915 64.2449 30.3837L67.8995 19.9712C67.9947 19.6718 68.1785 19.4268 68.4507 19.2362C68.7229 19.0457 69.0428 18.9504 69.4103 18.9504H73.8611Z" fill="#272A31"/>
</svg>
