<svg id="Layer_1" data-name="Layer 1" xmlns="http://www.w3.org/2000/svg" viewBox="0 0 64 64"><path d="M60,48H58a2.00229,2.00229,0,0,0-2,2v1.44739A10.66129,10.66129,0,0,1,50.00049,53,10.79766,10.79766,0,0,1,44,51.447V50a2.00229,2.00229,0,0,0-2-2H40a2.00229,2.00229,0,0,0-2,2v1.44739A10.66129,10.66129,0,0,1,32.00049,53,10.79766,10.79766,0,0,1,26,51.447V50a2.00229,2.00229,0,0,0-2-2H22a2.00229,2.00229,0,0,0-2,2v1.44739A10.662,10.662,0,0,1,14,53a10.79908,10.79908,0,0,1-6-1.55261V50a2.00229,2.00229,0,0,0-2-2H4a2.00229,2.00229,0,0,0-2,2V63H8V53.76636A13.96515,13.96515,0,0,0,14,55a14.01169,14.01169,0,0,0,6-1.2323V63h6V53.76611A13.964,13.964,0,0,0,32.00049,55,14.01059,14.01059,0,0,0,38,53.76776V63h6V53.76611A13.964,13.964,0,0,0,50.00049,55,14.01059,14.01059,0,0,0,56,53.76776V63h6V50A2.00229,2.00229,0,0,0,60,48Z" id="id_101" style="fill: rgb(255, 255, 255);"></path><rect x="11.50753" y="5.75003" width="2.00056" height="3.05073" transform="translate(2.79617 18.00202) rotate(-78.02822)" id="id_102" style="fill: rgb(255, 255, 255);"></rect><rect x="7.20018" y="10.60778" width="2.00052" height="3.22389" transform="translate(-3.45933 3.24093) rotate(-18.53648)" id="id_103" style="fill: rgb(255, 255, 255);"></rect><rect x="10.47125" y="8.6407" width="1.9994" height="4.1561" transform="translate(-4.184 11.90061) rotate(-47.37584)" id="id_104" style="fill: rgb(255, 255, 255);"></rect><path d="M2.1709,7.1123l3.35889,2.99512,4.65869-5.22558L6.8291,1.8877A3.49983,3.49983,0,1,0,2.1709,7.1123Z" id="id_105" style="fill: rgb(255, 255, 255);"></path><path d="M59.7002,1.00586a3.45157,3.45157,0,0,0-2.5293.88184L53.81152,4.88184l4.65869,5.22558L61.8291,7.1123a3.49941,3.49941,0,0,0-2.1289-6.10644Z" id="id_106" style="fill: rgb(255, 255, 255);"></path><rect x="49.96682" y="6.27511" width="3.05073" height="2.00056" transform="translate(-0.38917 10.83926) rotate(-11.97178)" id="id_107" style="fill: rgb(255, 255, 255);"></rect><rect x="54.18761" y="11.21947" width="3.22389" height="2.00052" transform="translate(26.45556 61.22832) rotate(-71.44123)" id="id_108" style="fill: rgb(255, 255, 255);"></rect><rect x="50.451" y="9.71905" width="4.1561" height="1.9994" transform="translate(6.62882 38.42005) rotate(-42.64454)" id="id_109" style="fill: rgb(255, 255, 255);"></rect><path d="M6,18a12.02417,12.02417,0,0,1-2-.17993V44H60V17.82007A11.96791,11.96791,0,0,1,46.69745,2H17.30255A11.97317,11.97317,0,0,1,6,18Zm5,13h2v2H11Zm0,4h2v2H11Zm24.70819-7L32,25.95013,28.29181,28,29,23.65833l-3-3.07477,4.14587-.63343L32,16l1.85413,3.95013L38,20.58356l-3,3.07477ZM51,31h2v2H51Zm0,4h2v2H51Zm-4,0h2v2H47Zm8,4V21h2V40a.99974.99974,0,0,1-1,1H41V39ZM22,5H42V7H22Zm1,34v2H8a.99974.99974,0,0,1-1-1V22H9V39Zm-8-4h2v2H15Z" id="id_110" style="fill: rgb(238, 82, 66);"></path></svg>