<svg xmlns="http://www.w3.org/2000/svg" viewBox="0 0 64 64"><g id="Layer_55" data-name="Layer 55"><path d="M58,17.55C51.36,4.43,33.81-.92,21,6.27c-13.56,6.88-18.66,25.12-10.7,38L2.86,58.1A1.51,1.51,0,0,0,4.8,60.18l14.51-6.56C43,68.23,71,42.51,58,17.55Zm-.84,20c-4.67,15.86-24,22.18-37.43,12.92a1.56,1.56,0,0,0-.93.09L7.6,55.62,13.31,45h0a1.53,1.53,0,0,0-.05-1.52,24.29,24.29,0,0,1-2.74-20.13C14.09,10.71,28.49,3,41,7.11,53.57,10.67,61.25,25.08,57.17,37.54Z" id="id_101" style="fill: rgb(255, 255, 255);"></path><path d="M18.63,26.25c-5.85.18-5.85,8.67,0,8.86A4.43,4.43,0,0,0,18.63,26.25Zm0,5.86a1.43,1.43,0,0,1,0-2.86A1.43,1.43,0,0,1,18.63,32.11Z" id="id_102" style="fill: rgb(238, 82, 66);"></path><path d="M33.37,26.25a4.43,4.43,0,0,0,0,8.86C39.22,34.92,39.22,26.43,33.37,26.25Zm0,5.86a1.43,1.43,0,0,1,0-2.86A1.43,1.43,0,0,1,33.37,32.11Z" id="id_103" style="fill: rgb(238, 82, 66);"></path><path d="M48.1,26.25a4.43,4.43,0,0,0,0,8.86C54,34.92,54,26.43,48.1,26.25Zm0,5.86a1.43,1.43,0,0,1,0-2.86A1.43,1.43,0,0,1,48.1,32.11Z" id="id_104" style="fill: rgb(238, 82, 66);"></path></g></svg>