<svg id="Layer_1" data-name="Layer 1" xmlns="http://www.w3.org/2000/svg" viewBox="0 0 128 128"><defs><style>.cls-1{fill:#1d75b8;}.cls-2{fill:#2d3e50;}</style></defs><title>b</title><path class="cls-1" d="M7.27718,18.51041a8.66085,8.66085,0,0,0,17.00377,0L25.6021,11.69A9.12416,9.12416,0,0,0,16.55975,1.335H14.99837A9.12416,9.12416,0,0,0,5.956,11.69Z" id="id_105" style="fill: rgb(255, 255, 255);"></path><path class="cls-1" d="M53.856,52.27662l-16.6756-4.038L27.05981,36.78908A12.38469,12.38469,0,0,0,16.1432,30.25934h0A12.38791,12.38791,0,0,0,3.75527,42.64723V70.6097a12.34887,12.34887,0,0,0,3.84285,8.96409c.03383.44574.07085.89147.10254,1.33721.17456,2.2004,3.22628,35.105,3.47954,37.78027q.0805.90521.16078,1.81042a6.34175,6.34175,0,0,0,6.77842,5.76552h0a6.34175,6.34175,0,0,0,5.87211-6.6863c-.03468-.60485-.10011-39.10412-.08413-39.32122a12.36184,12.36184,0,0,0,4.6237-9.65V56.89409l1.29353,1.06333.58124.47886a5.11608,5.11608,0,0,0,2.4134,1.08659l19.015,2.9426A5.19657,5.19657,0,0,0,53.856,52.27662Z" id="id_106" style="fill: rgb(255, 255, 255);"></path><path class="cls-1" d="M7.27718,18.51041a8.66085,8.66085,0,0,0,17.00377,0L25.6021,11.69A9.12416,9.12416,0,0,0,16.55975,1.335H14.99837A9.12416,9.12416,0,0,0,5.956,11.69Z" id="id_107" style="fill: rgb(255, 255, 255);"></path><path class="cls-2" d="M119.99361,17.52771H83.25138V12.845a3.28507,3.28507,0,1,0-6.57014,0v4.68269H39.939a4.252,4.252,0,0,0-4.2536,4.25111V22.575A4.25414,4.25414,0,0,0,39.939,26.8286V41.62568l1.61464,1.82545,4.24616,1.0293V29.9909h68.333V75.57267h-68.333V66.69839l-5.8608-.90777V77.87434A3.56136,3.56136,0,0,0,43.49816,81.436H55.57445a4.96037,4.96037,0,0,0,4.64888,3.23814h1.32775l-6.40733,41.22914,4.90186.76175,6.52574-41.9909H77.48477v41.61014h4.96047V84.6741H93.3589l6.52574,41.9909,4.90186-.76175L98.37917,84.6741h1.32765A4.96037,4.96037,0,0,0,104.3557,81.436h12.07877a3.56081,3.56081,0,0,0,3.55913-3.55913V26.8286a4.2536,4.2536,0,0,0,4.25113-4.25361v-.79616A4.25148,4.25148,0,0,0,119.99361,17.52771Z" id="id_108" style="fill: rgb(238, 82, 66);"></path></svg>

