<svg id="Layer_1" data-name="Layer 1" xmlns="http://www.w3.org/2000/svg" viewBox="0 0 128 128"><defs><style>.cls-1{fill:#2e79bd;}.cls-2{fill:#2d3e50;}</style></defs><title>b</title><path class="cls-1" d="M83.40387,70.90745a20.61285,20.61285,0,0,0,.0006-13.81414q-.19819-.55592-.42642-1.09636A20.59366,20.59366,0,0,0,64.15819,43.40505l-.15766-.0012-.14745.0012A20.59922,20.59922,0,0,0,45.02187,55.99695q-.22883.54059-.42582,1.09576a20.6152,20.6152,0,0,0-.00053,13.81474c.132.37046.27431.73641.42747,1.09516A20.59152,20.59152,0,0,0,63.84286,84.5945l.15766.00105.14745-.00105A20.59774,20.59774,0,0,0,82.97805,72.0026Q83.20689,71.46291,83.40387,70.90745ZM56.15085,48.7922q-.31165.51581-.60053,1.07533a25.53735,25.53735,0,0,0-2.10048,5.77368H49.06967A17.07743,17.07743,0,0,1,56.15085,48.7922ZM46.88612,63.9991a17.02665,17.02665,0,0,1,.7081-4.87592H52.8089a38.07806,38.07806,0,0,0,0,9.7538H47.59421A17.04533,17.04533,0,0,1,46.88612,63.9991Zm2.18355,8.35924h4.38017a25.59321,25.59321,0,0,0,2.1,5.77473q.28855.55772.59933,1.07412A17.0778,17.0778,0,0,1,49.06967,72.35834Zm13.18957,8.31177c-2.13916-1.09741-4.06372-4.15709-5.20387-8.31177h5.20387Zm0-11.79314H56.33015a33.81917,33.81917,0,0,1,0-9.7538h5.92909Zm0-13.23577H57.05537c1.14015-4.15423,3.06471-7.21376,5.20387-8.31132Zm16.67222,0H74.55008a25.47162,25.47162,0,0,0-2.10048-5.77368q-.28855-.55749-.60053-1.07533A17.08343,17.08343,0,0,1,78.93146,55.64121ZM65.74128,47.32929c2.13856,1.09756,4.06312,4.15709,5.20327,8.31192H65.74128Zm0,33.34083V72.35834h5.20327C69.8044,76.51363,67.87984,79.5733,65.74128,80.67011Zm0-11.79314v-9.7538h5.92849a33.81917,33.81917,0,0,1,0,9.7538ZM71.8502,79.2072q.31-.51468.59941-1.07352a25.49644,25.49644,0,0,0,2.10048-5.77533h4.38138A17.08879,17.08879,0,0,1,71.8502,79.2072ZM80.40631,68.877H75.191a38.04192,38.04192,0,0,0,.0006-9.7538h5.21469a17.16071,17.16071,0,0,1,0,9.7538Z" id="id_101" style="fill: rgb(238, 82, 66));"></path><path class="cls-2" d="M66.23576,102.42572V91.41887a2.23576,2.23576,0,1,0-4.47151,0v11.00685a10.9086,10.9086,0,1,0,4.47151,0Z" id="id_102" style="fill: rgb(238, 82, 66);"></path><path class="cls-1" d="M83.38487,46.851a2.21648,2.21648,0,0,0,1.57235-.6634L108.016,23.24636a10.903,10.903,0,0,0,13.6848-16.82965,10.90852,10.90852,0,0,0-18.62314,7.71447,10.60033,10.60033,0,0,0,1.79349,5.97033L81.81244,43.0427a2.23937,2.23937,0,0,0,0,3.14486A2.21665,2.21665,0,0,0,83.38487,46.851ZM109.441,9.56157a6.46487,6.46487,0,0,1,9.1396,0,6.4951,6.4951,0,0,1,0,9.13952,6.46265,6.46265,0,0,1-9.1396-9.13952Z" id="id_103" style="fill: rgb(255, 255, 255);"></path><path class="cls-1" d="M113.86875,103.07755a10.6,10.6,0,0,0-5.97025,1.79356L84.95722,81.81244a2.23928,2.23928,0,0,0-3.14478,0,2.19522,2.19522,0,0,0,0,3.14486l22.9412,23.05867a10.8954,10.8954,0,1,0,9.11511-4.93842Zm4.56976,15.503a6.49505,6.49505,0,0,1-9.1396,0,6.46161,6.46161,0,1,1,9.1396,0Z" id="id_104" style="fill: rgb(255, 255, 255);"></path><path class="cls-1" d="M44.61513,81.149a2.21648,2.21648,0,0,0-1.57235.6634L19.984,104.75364a10.89545,10.89545,0,1,0,4.93834,9.115,10.59984,10.59984,0,0,0-1.79349-5.97018L46.18756,84.9573a2.23937,2.23937,0,0,0,0-3.14486A2.21665,2.21665,0,0,0,44.61513,81.149ZM18.559,118.43843a6.46487,6.46487,0,0,1-9.1396,0,6.4951,6.4951,0,0,1,0-9.13952,6.46265,6.46265,0,0,1,9.1396,9.13952Z" id="id_105" style="fill: rgb(255, 255, 255);"></path><path class="cls-1" d="M14.13125,24.9223a10.59984,10.59984,0,0,0,5.97025-1.79341L43.04278,46.18756a2.23928,2.23928,0,0,0,3.14478,0,2.19522,2.19522,0,0,0,0-3.14486L23.24636,19.984A10.903,10.903,0,0,0,6.41663,6.29923,10.90845,10.90845,0,0,0,14.13125,24.9223ZM9.56149,9.41945a6.49505,6.49505,0,0,1,9.1396,0,6.46161,6.46161,0,1,1-9.1396,0Z" id="id_106" style="fill: rgb(255, 255, 255);"></path><path class="cls-2" d="M61.76424,25.57428V36.58113a2.23576,2.23576,0,0,0,4.47151,0V25.57428a10.9086,10.9086,0,1,0-4.47151,0Z" id="id_107" style="fill: rgb(238, 82, 66);"></path><path class="cls-2" d="M113.11318,53.0914a10.93639,10.93639,0,0,0-10.68746,8.67292H91.41887a2.23568,2.23568,0,1,0,0,4.47136h11.00685A10.91324,10.91324,0,1,0,113.11318,53.0914Z" id="id_108" style="fill: rgb(238, 82, 66);"></path><path class="cls-2" d="M25.57428,61.76432a10.9086,10.9086,0,1,0,0,4.47136H36.58113a2.23568,2.23568,0,1,0,0-4.47136Z" id="id_109" style="fill: rgb(238, 82, 66));"></path></svg>