<svg version="1.1" id="Layer_1_1_" xmlns="http://www.w3.org/2000/svg" xmlns:xlink="http://www.w3.org/1999/xlink" x="0px" y="0px" viewBox="0 0 64 64" style="enable-background:new 0 0 64 64;" xml:space="preserve">
<path d="M32,33c-2.757,0-5,2.243-5,5s2.243,5,5,5s5-2.243,5-5S34.757,33,32,33z M32,41c-1.654,0-3-1.346-3-3s1.346-3,3-3
	s3,1.346,3,3S33.654,41,32,41z" id="id_101" style="fill: rgb(238, 82, 66);"></path>
<path d="M42,35h-1.522c-0.105-0.298-0.226-0.589-0.361-0.873l1.076-1.077c0.78-0.779,0.78-2.049,0-2.828l-1.414-1.414
	c-0.779-0.779-2.049-0.779-2.829,0l-1.077,1.076c-0.284-0.135-0.576-0.256-0.873-0.361V28c0-1.103-0.897-2-2-2h-2
	c-1.103,0-2,0.897-2,2v1.522c-0.297,0.105-0.589,0.227-0.873,0.361l-1.077-1.076c-0.78-0.78-2.05-0.779-2.829,0l-1.414,1.414
	c-0.78,0.779-0.78,2.049,0,2.828l1.076,1.077c-0.135,0.284-0.256,0.575-0.361,0.873H22c-1.103,0-2,0.897-2,2v2c0,1.103,0.897,2,2,2
	h1.522c0.105,0.298,0.226,0.589,0.361,0.873l-1.076,1.077c-0.78,0.779-0.78,2.049,0,2.828l1.414,1.414
	c0.779,0.779,2.049,0.779,2.829,0l1.077-1.076c0.284,0.135,0.576,0.256,0.873,0.361V48c0,1.103,0.897,2,2,2h2c1.103,0,2-0.897,2-2
	v-1.522c0.297-0.105,0.589-0.227,0.873-0.361l1.077,1.076c0.779,0.779,2.049,0.778,2.829,0l1.414-1.414
	c0.78-0.779,0.78-2.049,0-2.828l-1.076-1.077c0.135-0.284,0.256-0.575,0.361-0.873H42c1.103,0,2-0.897,2-2v-2
	C44,35.897,43.103,35,42,35z M42,39h-2.262c-0.456,0-0.854,0.309-0.968,0.75c-0.164,0.635-0.414,1.24-0.744,1.799
	c-0.232,0.393-0.169,0.894,0.154,1.216l1.599,1.6l-1.415,1.414l-1.599-1.6c-0.321-0.321-0.822-0.385-1.215-0.154
	c-0.56,0.331-1.166,0.582-1.8,0.746C33.308,44.885,33,45.282,33,45.738V48h-2v-2.262c0-0.456-0.308-0.854-0.75-0.968
	c-0.634-0.164-1.24-0.415-1.8-0.746c-0.158-0.093-0.333-0.139-0.508-0.139c-0.259,0-0.515,0.101-0.708,0.293l-1.6,1.6l-1.414-1.414
	l1.599-1.6c0.323-0.322,0.386-0.823,0.154-1.216c-0.33-0.559-0.58-1.164-0.744-1.799C25.117,39.309,24.718,39,24.262,39H22v-2h2.262
	c0.456,0,0.854-0.309,0.968-0.75c0.164-0.635,0.414-1.24,0.744-1.799c0.232-0.393,0.169-0.894-0.154-1.216l-1.599-1.6l1.415-1.414
	l1.599,1.6c0.322,0.322,0.823,0.386,1.215,0.154c0.56-0.331,1.166-0.582,1.8-0.746c0.441-0.114,0.75-0.512,0.75-0.968V28h2v2.262
	c0,0.456,0.308,0.854,0.75,0.968c0.634,0.164,1.24,0.415,1.8,0.746c0.393,0.23,0.893,0.167,1.215-0.154l1.6-1.6l1.414,1.414
	l-1.599,1.6c-0.323,0.322-0.386,0.823-0.154,1.216c0.33,0.559,0.58,1.164,0.744,1.799c0.114,0.441,0.512,0.75,0.968,0.75H42V39z" id="id_102" style="fill: rgb(238, 82, 66);"></path>
<path d="M57,19h-4v-1c0-2.849-1.714-5.302-4.162-6.393C50.158,10.505,51,8.85,51,7c0-3.309-2.691-6-6-6s-6,2.691-6,6
	c0,1.85,0.842,3.505,2.162,4.607C38.714,12.698,37,15.151,37,18v1H27v-1c0-2.849-1.714-5.302-4.162-6.393
	C24.158,10.505,25,8.85,25,7c0-3.309-2.691-6-6-6s-6,2.691-6,6c0,1.85,0.842,3.505,2.162,4.607C12.714,12.698,11,15.151,11,18v1H7
	c-0.502,0-0.926,0.372-0.991,0.869l-5,38c-0.038,0.286,0.049,0.574,0.239,0.79C1.438,58.876,1.712,59,2,59h3.08
	C5.033,59.328,5,59.66,5,60v2c0,0.553,0.448,1,1,1h14c0.552,0,1-0.447,1-1v-2c0-0.34-0.033-0.672-0.08-1h22.16
	C43.033,59.328,43,59.66,43,60v2c0,0.553,0.448,1,1,1h14c0.552,0,1-0.447,1-1v-2c0-0.34-0.033-0.672-0.08-1H62
	c0.288,0,0.562-0.124,0.752-0.341c0.19-0.216,0.277-0.504,0.239-0.79l-5-38C57.926,19.372,57.502,19,57,19z M51,18v1h-3.882
	l0.776-1.553c0.099-0.199,0.13-0.426,0.086-0.644l-0.725-3.624C49.403,13.74,51,15.679,51,18z M45.18,13l0.772,3.859L45,18.764
	l-0.952-1.904L44.82,13H45.18z M45,3c1.314,0,2.472,0.645,3.201,1.626c-2.086,0.488-4.317,0.488-6.403,0C42.528,3.645,43.686,3,45,3
	z M41.05,6.501C42.328,6.829,43.651,7,45,7c1.349,0,2.672-0.171,3.95-0.499C48.97,6.666,49,6.829,49,7c0,2.206-1.794,4-4,4
	s-4-1.794-4-4C41,6.829,41.03,6.666,41.05,6.501z M39,18c0-2.321,1.597-4.26,3.744-4.821l-0.725,3.624
	c-0.044,0.218-0.013,0.444,0.086,0.644L42.882,19H39V18z M25,18v1h-3.882l0.776-1.553c0.099-0.199,0.13-0.426,0.086-0.644
	l-0.725-3.624C23.403,13.74,25,15.679,25,18z M19.18,13l0.772,3.859L19,18.764l-0.952-1.904L18.82,13H19.18z M19,3
	c1.314,0,2.472,0.645,3.201,1.626c-2.086,0.488-4.317,0.488-6.403,0C16.528,3.645,17.686,3,19,3z M15.05,6.501
	C16.328,6.829,17.651,7,19,7c1.349,0,2.672-0.171,3.95-0.499C22.97,6.666,23,6.829,23,7c0,2.206-1.794,4-4,4s-4-1.794-4-4
	C15,6.829,15.03,6.666,15.05,6.501z M13,18c0-2.321,1.597-4.26,3.744-4.821l-0.725,3.624c-0.044,0.218-0.013,0.444,0.086,0.644
	L16.882,19H13V18z M19,61H7v-1c0-2.757,2.243-5,5-5h2c2.757,0,5,2.243,5,5V61z M13,53c-2.206,0-4-1.794-4-4s1.794-4,4-4s4,1.794,4,4
	S15.206,53,13,53z M57,61H45v-1c0-2.757,2.243-5,5-5h2c2.757,0,5,2.243,5,5V61z M51,53c-2.206,0-4-1.794-4-4s1.794-4,4-4
	s4,1.794,4,4S53.206,53,51,53z M58.315,57c-0.718-1.504-1.952-2.713-3.477-3.393C56.158,52.505,57,50.85,57,49c0-3.309-2.691-6-6-6
	s-6,2.691-6,6c0,1.85,0.842,3.505,2.162,4.607c-1.525,0.68-2.759,1.889-3.477,3.393h-23.37c-0.718-1.504-1.952-2.713-3.477-3.393
	C18.158,52.505,19,50.85,19,49c0-3.309-2.691-6-6-6s-6,2.691-6,6c0,1.85,0.842,3.505,2.162,4.607
	C7.637,54.287,6.403,55.496,5.685,57H3.14l4.737-36h48.246l4.737,36H58.315z" id="id_103" style="fill: rgb(255, 255, 255);"></path>
<rect x="13" y="23" width="2" height="2" id="id_104" style="fill: rgb(238, 82, 66);"></rect>
<rect x="13" y="27" width="2" height="2" id="id_105" style="fill: rgb(238, 82, 66);"></rect>
<rect x="13" y="31" width="2" height="2" id="id_106" style="fill: rgb(238, 82, 66);"></rect>
<rect x="17" y="33" width="2" height="2" id="id_107" style="fill: rgb(238, 82, 66);"></rect>
<rect x="49" y="23" width="2" height="2" id="id_108" style="fill: rgb(238, 82, 66);"></rect>
<rect x="49" y="27" width="2" height="2" id="id_109" style="fill: rgb(238, 82, 66);"></rect>
<rect x="49" y="31" width="2" height="2" id="id_110" style="fill: rgb(238, 82, 66);"></rect>
<rect x="45" y="33" width="2" height="2" id="id_111" style="fill: rgb(238, 82, 66);"></rect>
<rect x="13" y="39" width="2" height="2" id="id_112" style="fill: rgb(238, 82, 66);"></rect>
<rect x="13" y="35" width="2" height="2" id="id_113" style="fill: rgb(238, 82, 66);"></rect>
<rect x="49" y="35" width="2" height="2" id="id_114" style="fill: rgb(238, 82, 66);"></rect>
<rect x="49" y="39" width="2" height="2" id="id_115" style="fill: rgb(238, 82, 66);"></rect>
</svg>